HIERARCHY
ROOT Hips
{
  OFFSET 53.7543 95.69 29.048
  CHANNELS 6 Xposition Yposition Zposition Zrotation Xrotation Yrotation
  JOINT spine
  {
    OFFSET 0 7.96568 0.458067
    CHANNELS 3 Zrotation Xrotation Yrotation
    JOINT spine1
    {
      OFFSET 0 10.2431 0
      CHANNELS 3 Zrotation Xrotation Yrotation
      JOINT spine2
      {
        OFFSET 0 9.81475 0
        CHANNELS 3 Zrotation Xrotation Yrotation
        JOINT Neck
        {
          OFFSET 0 25.1986 1.20138
          CHANNELS 3 Zrotation Xrotation Yrotation
          JOINT Head
          {
            OFFSET 0 7.61315 0
            CHANNELS 3 Zrotation Xrotation Yrotation
            End Site
            {
              OFFSET 0 18.4281 -6.07733
            }
          }
        }
        JOINT RightShoulder
        {
          OFFSET -4.1327 10.5992 -0.575451
          CHANNELS 3 Zrotation Xrotation Yrotation
          JOINT RightArm
          {
            OFFSET 0 13.9018 0
            CHANNELS 3 Zrotation Xrotation Yrotation
            JOINT RightArmRoll
            {
              OFFSET 0 7.01789 0
              CHANNELS 3 Zrotation Xrotation Yrotation
              JOINT RightForeArm
              {
                OFFSET 0 20.4406 0
                CHANNELS 3 Zrotation Xrotation Yrotation
                JOINT RightForeArmRoll
                {
                  OFFSET 0 7.87515 0
                  CHANNELS 3 Zrotation Xrotation Yrotation
                  JOINT RightHand
                  {
                    OFFSET 0 15.8037 0
                    CHANNELS 3 Zrotation Xrotation Yrotation
                    End Site
                    {
                      OFFSET 0 0 0
                    }
                  }
                }
              }
            }
          }
        }
        JOINT LeftShoulder
        {
          OFFSET 4.1327 10.5992 -0.575451
          CHANNELS 3 Zrotation Xrotation Yrotation
          JOINT LeftArm
          {
            OFFSET 0 13.9018 0
            CHANNELS 3 Zrotation Xrotation Yrotation
            JOINT LeftArmRoll
            {
              OFFSET 0 7.01789 0
              CHANNELS 3 Zrotation Xrotation Yrotation
              JOINT LeftForeArm
              {
                OFFSET 0 20.4406 0
                CHANNELS 3 Zrotation Xrotation Yrotation
                JOINT LeftForeArmRoll
                {
                  OFFSET 0 7.87516 0
                  CHANNELS 3 Zrotation Xrotation Yrotation
                  JOINT LeftHand
                  {
                    OFFSET 0 15.8037 0
                    CHANNELS 3 Zrotation Xrotation Yrotation
                    End Site
                    {
                      OFFSET 0 0 0
                    }
                  }
                }
              }
            }
          }
        }
      }
    }
  }
  JOINT RightUpLeg
  {
    OFFSET -7.06048 -1.2947 -1.0861
    CHANNELS 3 Zrotation Xrotation Yrotation
    JOINT RightUpLegRoll
    {
      OFFSET 0 18.5308 0
      CHANNELS 3 Zrotation Xrotation Yrotation
      JOINT RightLeg
      {
        OFFSET 0 -22.9476 0
        CHANNELS 3 Zrotation Xrotation Yrotation
        JOINT RightLegRoll
        {
          OFFSET 0 23.0226 0
          CHANNELS 3 Zrotation Xrotation Yrotation
          JOINT RightFoot
          {
            OFFSET 0 19.1625 0
            CHANNELS 3 Zrotation Xrotation Yrotation
            JOINT RightToeBase
            {
              OFFSET 0 16.0188 0
              CHANNELS 3 Zrotation Xrotation Yrotation
              End Site
              {
                OFFSET 0.00678979 7.75781 -0.894207
              }
            }
          }
        }
      }
    }
  }
  JOINT LeftUpLeg
  {
    OFFSET 7.06048 -1.2947 -1.0861
    CHANNELS 3 Zrotation Xrotation Yrotation
    JOINT LeftUpLegRoll
    {
      OFFSET 0 18.5309 0
      CHANNELS 3 Zrotation Xrotation Yrotation
      JOINT LeftLeg
      {
        OFFSET 0 22.9475 0
        CHANNELS 3 Zrotation Xrotation Yrotation
        JOINT LeftLegRoll
        {
          OFFSET 0 23.2355 0
          CHANNELS 3 Zrotation Xrotation Yrotation
          JOINT LeftFoot
          {
            OFFSET 0 18.9496 0
            CHANNELS 3 Zrotation Xrotation Yrotation
            JOINT LeftToeBase
            {
              OFFSET 0 16.0188 0
              CHANNELS 3 Zrotation Xrotation Yrotation
              End Site
              {
                OFFSET -0.0304289 7.75781 -0.894207
              }
            }
          }
        }
      }
    }
  }
}
MOTION
Frames: 12
Frame Time: 0.00208333
52.1111 56.6183 -13.1092 2.74128 -1.74208 7.31775 -0.21496 0.35858 -0.415274 -0.424986 4.72059 -0.780204 -0.416291 6.36558 -0.774095 -3.35185 5.06651 -1.34365 2.7579 3.72923 -1.84914 62.8735 -1.57192 -1.40127 115.325 34.792 -17.1597 2.38542e-014 1.27222e-014 6.36111e-015 17.9173 37.0301 -7.64296 -4.28875e-006 -4.47071e-006 -3.00351 8.02886 -4.95099 0.697486 -69.9378 -2.23548 2.41993 -108.415 35.7339 16.6319 -9.14409e-015 9.54166e-015 -3.18055e-015 -21.0991 37.4468 8.527 1.23135e-006 -3.0783e-006 3.00736 -8.02901 -4.95091 -0.697415 109.319 76.1945 67.4336 -180 1.52568e-005 179.069 -147.224 80.6659 147.801 1.60941e-006 -3.52245e-006 1.38377 -9.74038 61.6972 16.1407 8.13692 25.239 -3.48788 -144.323 82.3872 -37.344 4.47153e-006 -3.51245e-005 -1.33592 18.6601 -82.9611 19.616 1.95755e-006 -6.86802e-006 -1.82423 12.6251 62.1338 -15.9928 -8.13662 25.2346 3.48642 
52.1138 56.6201 -13.1079 2.74426 -1.7282 7.31675 -0.215945 0.359782 -0.414527 -0.427306 4.72205 -0.780543 -0.418613 6.36704 -0.774392 -3.36413 5.07032 -1.34244 2.76621 3.73105 -1.84998 62.8616 -1.57433 -1.40143 115.332 34.7876 -17.1795 1.43125e-014 6.36111e-015 -0 17.9275 37.0531 -7.6512 -4.28875e-006 -4.47071e-006 -3.00351 8.02886 -4.95099 0.697486 -69.9383 -2.23973 2.42205 -108.405 35.7304 16.6427 -2.78299e-015 3.18055e-015 -2.38542e-015 -21.1105 37.4685 8.53738 1.23135e-006 -3.0783e-006 3.00736 -8.02901 -4.95091 -0.697415 109.262 76.2015 67.488 -180 1.52568e-005 179.069 -147.215 80.6658 147.792 1.60941e-006 -3.52245e-006 1.38321 -9.73922 61.6979 16.1406 8.13692 25.239 -3.48788 -144.274 82.3976 -37.3949 4.47153e-006 -3.51245e-005 -1.33589 18.6506 -82.9618 19.6081 1.95755e-006 -6.86802e-006 -1.82426 12.6235 62.1345 -15.9934 -8.13662 25.2346 3.48642 
52.1289 56.6144 -13.1012 2.74757 -1.71464 7.31571 -0.216962 0.361057 -0.413756 -0.429707 4.7236 -0.780902 -0.421018 6.36859 -0.774707 -3.37636 5.07394 -1.34122 2.77441 3.73266 -1.85079 62.8498 -1.57685 -1.40166 115.339 34.7833 -17.2001 -1.59028e-015 3.18055e-015 -9.54166e-015 17.9381 37.0761 -7.65962 -4.28875e-006 -4.47071e-006 -3.00351 8.02886 -4.95099 0.697486 -69.9389 -2.24422 2.42429 -108.394 35.7273 16.6534 -3.49861e-014 6.36111e-015 -1.35174e-014 -21.1222 37.4896 8.54758 1.23135e-006 -3.0783e-006 3.00736 -8.02901 -4.95091 -0.697415 109.205 76.2083 67.5416 -180 1.52568e-005 179.069 -147.205 80.6656 147.783 1.60941e-006 -3.52245e-006 1.38264 -9.73803 61.6984 16.1405 8.13692 25.239 -3.48788 -144.227 82.4077 -37.444 4.47153e-006 -3.51245e-005 -1.33589 18.6406 -82.9625 19.5998 1.95755e-006 -6.86802e-006 -1.82431 12.6219 62.1352 -15.994 -8.13662 25.2346 3.48642 
52.1222 56.6137 -13.0973 2.7511 -1.7013 7.31464 -0.218001 0.362385 -0.412968 -0.432166 4.72521 -0.781274 -0.423479 6.3702 -0.775036 -3.38857 5.07741 -1.34 2.78254 3.73413 -1.8516 62.8381 -1.57945 -1.40194 115.346 34.7792 -17.2212 1.59028e-015 -6.36111e-015 -0 17.9492 37.0993 -7.66816 -4.28875e-006 -4.47071e-006 -3.00351 8.02886 -4.95099 0.697486 -69.9395 -2.24887 2.42662 -108.383 35.7244 16.6641 -1.63003e-014 1.27222e-014 -7.15625e-015 -21.134 37.5101 8.55765 1.23135e-006 -3.0783e-006 3.00736 -8.02901 -4.95091 -0.697415 109.149 76.215 67.5945 -180 1.52568e-005 179.069 -147.194 80.6654 147.774 1.60941e-006 -3.52245e-006 1.38206 -9.73681 61.699 16.1403 8.13692 25.239 -3.48788 -144.181 82.4176 -37.4919 4.47153e-006 -3.51245e-005 -1.3359 18.6304 -82.9633 19.5912 1.95755e-006 -6.86802e-006 -1.82437 12.6204 62.1359 -15.9947 -8.13662 25.2346 3.48642 
52.1031 56.6184 -13.1148 2.75476 -1.6881 7.31356 -0.219052 0.363743 -0.412169 -0.434658 4.72685 -0.781655 -0.425973 6.37184 -0.775372 -3.40076 5.0808 -1.33878 2.79062 3.7355 -1.85239 62.8263 -1.58209 -1.40224 115.352 34.7751 -17.2426 -4.77083e-015 -3.18055e-015 -9.54166e-015 17.9604 37.1224 -7.67678 -4.28875e-006 -4.47071e-006 -3.00351 8.02886 -4.95099 0.697486 -69.9401 -2.25361 2.42899 -108.372 35.7216 16.6747 9.14409e-015 6.36111e-015 3.18055e-015 -21.1459 37.5305 8.56766 1.23135e-006 -3.0783e-006 3.00736 -8.02901 -4.95091 -0.697415 109.094 76.2216 67.6472 -180 1.52568e-005 179.069 -147.183 80.6651 147.765 1.60941e-006 -3.52245e-006 1.38148 -9.73559 61.6996 16.1401 8.13692 25.239 -3.48788 -144.136 82.4273 -37.5392 4.47153e-006 -3.51245e-005 -1.33592 18.6199 -82.9641 19.5825 1.95755e-006 -6.86802e-006 -1.82443 12.6188 62.1367 -15.9953 -8.13662 25.2346 3.48642 
52.1096 56.6186 -13.1121 2.75846 -1.67492 7.31248 -0.220107 0.365107 -0.411368 -0.437158 4.7285 -0.782038 -0.428474 6.37349 -0.77571 -3.41295 5.08417 -1.33755 2.79869 3.73686 -1.85319 62.8146 -1.58474 -1.40255 115.359 34.7709 -17.2641 1.59028e-015 -3.18055e-015 -3.18055e-015 17.9717 37.1456 -7.68542 -4.28875e-006 -4.47071e-006 -3.00351 8.02886 -4.95099 0.697486 -69.9407 -2.25838 2.43137 -108.361 35.7189 16.6852 1.59028e-015 6.36111e-015 3.18055e-015 -21.1579 37.5507 8.57766 1.23135e-006 -3.0783e-006 3.00736 -8.02901 -4.95091 -0.697415 109.038 76.2281 67.6998 -180 1.52568e-005 179.069 -147.173 80.6648 147.755 1.60941e-006 -3.52245e-006 1.38089 -9.73436 61.7001 16.14 8.13692 25.239 -3.48788 -144.091 82.4371 -37.5864 4.47153e-006 -3.51245e-005 -1.33594 18.6094 -82.9649 19.5737 1.95755e-006 -6.86802e-006 -1.82449 12.6173 62.1375 -15.996 -8.13662 25.2346 3.48642 
52.0944 56.6139 -13.0498 2.76209 -1.66168 7.3114 -0.221156 0.366457 -0.410572 -0.439641 4.73013 -0.782417 -0.43096 6.37512 -0.776044 -3.42515 5.08757 -1.33633 2.80679 3.73826 -1.85399 62.8029 -1.58737 -1.40285 115.366 34.7668 -17.2854 3.02153e-014 3.18055e-015 1.27222e-014 17.983 37.1688 -7.69403 -4.28875e-006 -4.47071e-006 -3.00351 8.02886 -4.95099 0.697486 -69.9413 -2.26311 2.43373 -108.351 35.716 16.6958 4.37326e-015 6.36111e-015 3.18055e-015 -21.1698 37.5711 8.5877 1.23135e-006 -3.0783e-006 3.00736 -8.02901 -4.95091 -0.697415 108.982 76.2347 67.7526 -180 1.52568e-005 179.069 -147.162 80.6646 147.746 1.60941e-006 -3.52245e-006 1.38031 -9.73314 61.7007 16.1398 8.13692 25.239 -3.48788 -144.045 82.4469 -37.6341 4.47153e-006 -3.51245e-005 -1.33596 18.599 -82.9657 19.565 1.95755e-006 -6.86802e-006 -1.82455 12.6158 62.1383 -15.9966 -8.13662 25.2346 3.48642 
52.0948 56.6164 -13.0618 2.76556 -1.64828 7.31034 -0.222188 0.36777 -0.409789 -0.442084 4.73172 -0.782786 -0.433405 6.37671 -0.776369 -3.43736 5.09109 -1.33511 2.81493 3.73977 -1.8548 62.7911 -1.58995 -1.40311 115.373 34.7626 -17.3064 -7.95139e-015 0 -1.59028e-014 17.9939 37.1919 -7.70257 -4.28875e-006 -4.47071e-006 -3.00351 8.02886 -4.95099 0.697486 -69.9419 -2.26771 2.43603 -108.34 35.7131 16.7065 -1.23246e-014 3.18055e-015 -2.38542e-015 -21.1816 37.5918 8.59784 1.23135e-006 -3.0783e-006 3.00736 -8.02901 -4.95091 -0.697415 108.925 76.2414 67.806 -180 1.52568e-005 179.069 -147.152 80.6643 147.737 1.60941e-006 -3.52245e-006 1.37973 -9.73193 61.7013 16.1396 8.13692 25.239 -3.48788 -143.998 82.4568 -37.6829 4.47153e-006 -3.51245e-005 -1.33597 18.5888 -82.9665 19.5566 1.95755e-006 -6.86802e-006 -1.8246 12.6143 62.139 -15.9973 -8.13662 25.2346 3.48642 
52.1161 56.6191 -13.1157 2.76877 -1.63463 7.30932 -0.223196 0.369024 -0.409025 -0.444461 4.73325 -0.783139 -0.435784 6.37823 -0.776679 -3.44961 5.09476 -1.33389 2.82317 3.74144 -1.85562 62.7793 -1.59244 -1.40332 115.379 34.7583 -17.3267 -6.36111e-015 0 -9.54166e-015 18.0045 37.2149 -7.71097 -4.28875e-006 -4.47071e-006 -3.00351 8.02886 -4.95099 0.697486 -69.9425 -2.27213 2.43823 -108.329 35.7099 16.7172 -1.27222e-014 3.18055e-015 -4.77083e-015 -21.1933 37.6131 8.60813 1.23135e-006 -3.0783e-006 3.00736 -8.02901 -4.95091 -0.697415 108.868 76.2482 67.8602 -180 1.52568e-005 179.069 -147.142 80.6642 147.728 1.60941e-006 -3.52245e-006 1.37917 -9.73075 61.7018 16.1395 8.13692 25.239 -3.48788 -143.95 82.467 -37.7333 4.47153e-006 -3.51245e-005 -1.33596 18.579 -82.9672 19.5483 1.95755e-006 -6.86802e-006 -1.82465 12.6127 62.1397 -15.9979 -8.13662 25.2346 3.48642 
52.1073 56.6169 -13.0962 2.77163 -1.62062 7.30834 -0.224168 0.370196 -0.408288 -0.446748 4.73468 -0.783469 -0.438075 6.37966 -0.776968 -3.4619 5.09866 -1.33268 2.83153 3.74335 -1.85646 62.7674 -1.5948 -1.40345 115.386 34.7538 -17.3461 -6.36111e-015 -3.18055e-015 -3.18055e-015 18.0145 37.2378 -7.71918 -4.28875e-006 -4.47071e-006 -3.00351 8.02886 -4.95099 0.697486 -69.943 -2.27628 2.4403 -108.318 35.7063 16.7281 -9.93923e-015 0 -4.77083e-015 -21.2048 37.6351 8.61865 1.23135e-006 -3.0783e-006 3.00736 -8.02901 -4.95091 -0.697415 108.811 76.2551 67.9154 -180 1.52568e-005 179.069 -147.132 80.6641 147.72 1.60941e-006 -3.52245e-006 1.37862 -9.72959 61.7025 16.1395 8.13692 25.239 -3.48788 -143.899 82.4775 -37.7861 4.47153e-006 -3.51245e-005 -1.33593 18.5697 -82.9679 19.5406 1.95755e-006 -6.86802e-006 -1.82467 12.6111 62.1403 -15.9984 -8.13662 25.2346 3.48642 
52.1061 56.6168 -13.0911 2.77404 -1.60616 7.30742 -0.225097 0.371265 -0.407586 -0.44892 4.73599 -0.783772 -0.44025 6.38097 -0.777231 -3.47425 5.10284 -1.33147 2.84004 3.74555 -1.85733 62.7555 -1.59702 -1.4035 115.393 34.7491 -17.3645 3.18055e-015 3.18055e-015 -6.36111e-015 18.0238 37.2606 -7.72717 -4.28875e-006 -4.47071e-006 -3.00351 8.02886 -4.95099 0.697486 -69.9435 -2.28011 2.44221 -108.307 35.7024 16.7392 -8.34896e-015 6.36111e-015 -5.56597e-015 -21.216 37.658 8.62943 1.23135e-006 -3.0783e-006 3.00736 -8.02901 -4.95091 -0.697415 108.752 76.2622 67.9719 -180 1.52568e-005 179.069 -147.123 80.6642 147.712 1.60941e-006 -3.52245e-006 1.37808 -9.72848 61.7031 16.1394 8.13692 25.239 -3.48788 -143.845 82.4884 -37.8417 4.47153e-006 -3.51245e-005 -1.33587 18.561 -82.9685 19.5333 1.95755e-006 -6.86802e-006 -1.82467 12.6094 62.1409 -15.999 -8.13662 25.2346 3.48642 
52.1055 56.6155 -13.0932 2.77591 -1.59116 7.30657 -0.225971 0.372207 -0.406926 -0.450953 4.73715 -0.784041 -0.442288 6.38214 -0.777463 -3.48666 5.10737 -1.33027 2.84873 3.74811 -1.85822 62.7435 -1.59905 -1.40342 115.399 34.7442 -17.3815 1.59028e-014 1.27222e-014 6.36111e-015 18.0322 37.2832 -7.73486 -4.28875e-006 -4.47071e-006 -3.00351 8.02886 -4.95099 0.697486 -69.9439 -2.28353 2.44392 -108.296 35.6979 16.7504 -7.95139e-016 6.36111e-015 -2.38542e-015 -21.2269 37.682 8.64054 1.23135e-006 -3.0783e-006 3.00736 -8.02901 -4.95091 -0.697415 108.691 76.2697 68.0302 -180 1.52568e-005 179.069 -147.115 80.6644 147.705 1.60941e-006 -3.52245e-006 1.37757 -9.72743 61.7038 16.1395 8.13692 25.239 -3.48788 -143.787 82.4998 -37.9008 4.47153e-006 -3.51245e-005 -1.33578 18.5532 -82.969 19.5267 1.95755e-006 -6.86802e-006 -1.82465 12.6076 62.1412 -15.9994 -8.13662 25.2346 3.48642 
